<mxfile host="app.diagrams.net" modified="2022-03-30T07:31:44.524Z" agent="5.0 (Windows NT 10.0; Win64; x64) AppleWebKit/537.36 (KHTML, like Gecko) Chrome/99.0.4844.82 Safari/537.36" etag="K_LNKgD7KzofaXiSmrQq" version="17.2.5" type="github">
  <diagram id="KGtRUmbAwfm2rY_dCURy" name="Page-1">
    <mxGraphModel dx="1102" dy="616" grid="1" gridSize="10" guides="1" tooltips="1" connect="1" arrows="1" fold="1" page="1" pageScale="1" pageWidth="850" pageHeight="1100" math="0" shadow="0">
      <root>
        <mxCell id="0" />
        <mxCell id="1" parent="0" />
        <mxCell id="c62p3OP8wOZxZHrP90wD-3" value="" style="edgeStyle=orthogonalEdgeStyle;rounded=0;orthogonalLoop=1;jettySize=auto;html=1;" edge="1" parent="1" source="c62p3OP8wOZxZHrP90wD-1" target="c62p3OP8wOZxZHrP90wD-2">
          <mxGeometry relative="1" as="geometry" />
        </mxCell>
        <mxCell id="c62p3OP8wOZxZHrP90wD-1" value="" style="whiteSpace=wrap;html=1;aspect=fixed;" vertex="1" parent="1">
          <mxGeometry x="70" y="100" width="140" height="140" as="geometry" />
        </mxCell>
        <mxCell id="c62p3OP8wOZxZHrP90wD-6" value="" style="edgeStyle=orthogonalEdgeStyle;rounded=0;orthogonalLoop=1;jettySize=auto;html=1;" edge="1" parent="1" source="c62p3OP8wOZxZHrP90wD-2" target="c62p3OP8wOZxZHrP90wD-5">
          <mxGeometry relative="1" as="geometry" />
        </mxCell>
        <mxCell id="c62p3OP8wOZxZHrP90wD-2" value="" style="ellipse;whiteSpace=wrap;html=1;" vertex="1" parent="1">
          <mxGeometry x="280" y="115" width="120" height="110" as="geometry" />
        </mxCell>
        <mxCell id="c62p3OP8wOZxZHrP90wD-5" value="" style="shape=step;perimeter=stepPerimeter;whiteSpace=wrap;html=1;fixedSize=1;" vertex="1" parent="1">
          <mxGeometry x="450" y="130" width="120" height="80" as="geometry" />
        </mxCell>
      </root>
    </mxGraphModel>
  </diagram>
</mxfile>
